<svg xmlns="http://www.w3.org/2000/svg" xmlns:xlink="http://www.w3.org/1999/xlink" viewBox="0 0 24 24" fill="#5090DD">
  <path d="M13.5 2C12.672 2 12 2.672 12 3.5L12 4L3 4C1.9069372 4 1 4.9069372 1 6L1 17 A 1.0001 1.0001 0 0 0 2 18L4 18C4 19.64501 5.3549904 21 7 21C8.6450096 21 10 19.64501 10 18L14 18C14 19.64501 15.35499 21 17 21C18.64501 21 20 19.64501 20 18L22 18 A 1.0001 1.0001 0 0 0 23 17L23 11 A 1.0001 1.0001 0 0 0 22.894531 10.552734L20.171875 5.1074219L20.169922 5.1054688C19.832312 4.4305851 19.13729 4 18.382812 4L15 4L15 3.5C15 2.672 14.328 2 13.5 2 z M 16 6L18.380859 6L20.880859 11L16 11L16 6 z M 7 7L9 7L9 9L11 9L11 11L9 11L9 13L7 13L7 11L5 11L5 9L7 9L7 7 z M 7 17C7.5641294 17 8 17.435871 8 18C8 18.564129 7.5641294 19 7 19C6.4358706 19 6 18.564129 6 18C6 17.435871 6.4358706 17 7 17 z M 17 17C17.564129 17 18 17.435871 18 18C18 18.564129 17.564129 19 17 19C16.435871 19 16 18.564129 16 18C16 17.435871 16.435871 17 17 17 z" fill="#5090DD" />
</svg>