<svg xmlns="http://www.w3.org/2000/svg" xmlns:xlink="http://www.w3.org/1999/xlink" viewBox="0 0 30 30" fill="#0746A7">
  <path d="M3 6C1.895 6 1 6.895 1 8L1 21 A 1.0001 1.0001 0 1 0 1 23L3 23L4.0507812 23C4.2981765 24.685411 5.7500665 26 7.5 26C9.2499335 26 10.701823 24.685411 10.949219 23L20.050781 23C20.298177 24.685411 21.750067 26 23.5 26C25.249933 26 26.701823 24.685411 26.949219 23L28 23L29 23 A 1.0001 1.0001 0 1 0 29 21L29 17C29 15.895 28.105 15 27 15L21 15C20.448 15 20 14.552 20 14L20 9C20 8.448 20.448 8 21 8L25.857422 8L25.519531 7.2128906C25.204531 6.4778906 24.481641 6 23.681641 6L3 6 z M 11 9C11.552 9 12 9.448 12 10L12 12L14 12C14.552 12 15 12.448 15 13C15 13.552 14.552 14 14 14L12 14L12 16C12 16.552 11.552 17 11 17C10.448 17 10 16.552 10 16L10 14L8 14C7.448 14 7 13.552 7 13C7 12.448 7.448 12 8 12L10 12L10 10C10 9.448 10.448 9 11 9 z M 7.5 21C8.3402718 21 9 21.659728 9 22.5C9 23.340272 8.3402718 24 7.5 24C6.6597282 24 6 23.340272 6 22.5C6 21.659728 6.6597282 21 7.5 21 z M 23.5 21C24.340272 21 25 21.659728 25 22.5C25 23.340272 24.340272 24 23.5 24C22.659728 24 22 23.340272 22 22.5C22 21.659728 22.659728 21 23.5 21 z" fill="#0746A7" />
</svg>