<svg xmlns="http://www.w3.org/2000/svg" xmlns:xlink="http://www.w3.org/1999/xlink" viewBox="0 0 50 50"><path d="M25 5.171875L3.585938 26.585938C3.0625 27.085938 2.851563 27.832031 3.035156 28.535156C3.21875 29.234375 3.765625 29.78125 4.464844 29.964844C5.167969 30.148438 5.914063 29.9375 6.414063 29.414063L25 10.828125L43.585938 29.414063C44.085938 29.9375 44.832031 30.148438 45.535156 29.964844C46.234375 29.78125 46.78125 29.234375 46.964844 28.535156C47.148438 27.832031 46.9375 27.085938 46.414063 26.585938 Z M 25 18.171875L3.585938 39.585938C3.0625 40.085938 2.851563 40.832031 3.035156 41.535156C3.21875 42.234375 3.765625 42.78125 4.464844 42.964844C5.167969 43.148438 5.914063 42.9375 6.414063 42.414063L25 23.828125L43.585938 42.414063C44.085938 42.9375 44.832031 43.148438 45.535156 42.964844C46.234375 42.78125 46.78125 42.234375 46.964844 41.535156C47.148438 40.832031 46.9375 40.085938 46.414063 39.585938Z"/></svg>