<svg xmlns="http://www.w3.org/2000/svg" xmlns:xlink="http://www.w3.org/1999/xlink" viewBox="0 0 24 24" fill="#5090DD">
  <path d="M14.2,2c-0.803,0-1.57,0.091-2.2,0.259C11.37,2.091,10.604,2,9.8,2C8.579,2,7.44,2.26,6.417,2.773L5.022,3.472L6.24,4.447 C6.723,4.834,7,5.4,7,6c0,1.103-0.897,2-2,2C4.796,8,4.583,7.96,4.347,7.878L2.96,7.392L3.018,8.86 c0.06,1.523,0.672,2.647,1.265,3.735c0.424,0.777,0.823,1.511,1.047,2.411c0.137,0.55,0.258,1.122,0.377,1.688 C6.258,19.303,6.828,22,9,22c2,0,2-2.103,2-3v-2c0-0.922,0.517-1.25,1-1.25s1,0.328,1,1.25v2c0,1.122,0,3,2,3 c2.152,0,2.722-2.668,3.273-5.248c0.125-0.588,0.251-1.18,0.397-1.745c0.224-0.9,0.626-1.634,1.053-2.409 C20.352,11.455,21,10.274,21,8.631C21,4.665,18.268,2,14.2,2z" fill="#5090DD" />
</svg>