<svg xmlns="http://www.w3.org/2000/svg" xmlns:xlink="http://www.w3.org/1999/xlink" viewBox="0 0 32 32" fill="#0746A7">
  <path d="M16.068359 2.6523438L13.824219 4.65625L10.884766 4.0039062L9.9433594 6.8613281L7.0722656 7.765625L7.6855469 10.712891L5.6523438 12.931641L7.65625 15.175781L7.0039062 18.115234L8.2578125 18.529297L4.3320312 24.09375L9.6289062 25.355469L12.59375 29.921875L16.072266 24.994141L19.548828 29.923828L22.513672 25.355469L27.8125 24.09375L23.90625 18.556641L24.927734 18.234375L24.314453 15.287109L26.347656 13.068359L24.34375 10.824219L24.996094 7.8847656L22.138672 6.9433594L21.234375 4.0722656L18.287109 4.6855469L16.068359 2.6523438 z M 16.050781 5.3476562L17.691406 6.8515625L18.193359 6.7460938L19.869141 6.3984375L20.537109 8.5214844L22.652344 9.21875L22.169922 11.390625L23.652344 13.050781L22.148438 14.691406L22.601562 16.869141L20.478516 17.537109L19.78125 19.652344L17.609375 19.169922L15.949219 20.652344L14.308594 19.148438L12.130859 19.601562L11.462891 17.478516L9.3476562 16.78125L9.8300781 14.609375L8.3476562 12.949219L9.8515625 11.308594L9.3984375 9.1308594L11.521484 8.4628906L12.21875 6.3476562L14.390625 6.8300781L16.050781 5.3476562 z M 21.996094 19.320312L24.474609 22.832031L21.271484 23.595703L19.480469 26.357422L16.816406 22.582031L16.685547 22.675781L18.175781 21.34375L21.115234 21.996094L21.996094 19.320312 z M 10.005859 19.517578L10.765625 21.927734L13.712891 21.314453L15.236328 22.708984L12.664062 26.355469L10.871094 23.595703L7.6679688 22.832031L10.005859 19.517578 z" fill="#0746A7" />
</svg>