<svg xmlns="http://www.w3.org/2000/svg" xmlns:xlink="http://www.w3.org/1999/xlink" viewBox="0 0 30 30" fill="#0746A7">
  <path d="M15.001953 2.0019531C14.635453 2.0019531 14.269188 2.1796094 14.054688 2.5371094L13.636719 3.234375C13.456719 3.534375 13.159266 3.736125 12.822266 3.828125C12.818266 3.829125 12.8165 3.8310313 12.8125 3.8320312C12.4715 3.9260313 12.109781 3.8985625 11.800781 3.7265625L11.089844 3.3320312C10.360844 2.9270313 9.4632187 3.4452969 9.4492188 4.2792969L9.4335938 5.1015625C9.4275938 5.4495625 9.2733438 5.7735312 9.0273438 6.0195312C9.0243437 6.0215312 9.0215313 6.0243438 9.0195312 6.0273438C8.7735312 6.2743437 8.4495625 6.4275937 8.1015625 6.4335938L7.2773438 6.4472656C6.4433438 6.4612656 5.9250781 7.3598437 6.3300781 8.0898438L6.7265625 8.8027344C6.8965625 9.1097344 6.9250313 9.4686406 6.8320312 9.8066406C6.8290312 9.8126406 6.8281719 9.8182188 6.8261719 9.8242188C6.7351719 10.159219 6.5333281 10.453813 6.2363281 10.632812L5.5371094 11.052734C4.8221094 11.481734 4.8221094 12.518266 5.5371094 12.947266L6.2363281 13.367188C6.5343281 13.546188 6.7351719 13.840781 6.8261719 14.175781C6.8281719 14.181781 6.8280781 14.188313 6.8300781 14.195312C6.9230781 14.533312 6.8965625 14.893219 6.7265625 15.199219L6.3300781 15.912109C5.9250781 16.641109 6.4433438 17.538734 7.2773438 17.552734L8.0996094 17.566406C8.4486094 17.572406 8.7715781 17.728609 9.0175781 17.974609L9.0253906 17.982422C9.2723906 18.228422 9.4275938 18.552391 9.4335938 18.900391L9.4472656 19.722656C9.4612656 20.556656 10.358891 21.074922 11.087891 20.669922L11.800781 20.273438C12.107781 20.103437 12.466687 20.076922 12.804688 20.169922C12.810688 20.171922 12.818219 20.171828 12.824219 20.173828C13.159219 20.264828 13.453812 20.465672 13.632812 20.763672L14.052734 21.462891C14.481734 22.177891 15.518266 22.177891 15.947266 21.462891L16.367188 20.763672C16.546187 20.465672 16.840781 20.264828 17.175781 20.173828C17.181781 20.171828 17.187359 20.171922 17.193359 20.169922C17.531359 20.076922 17.891266 20.103438 18.197266 20.273438L18.910156 20.669922C19.639156 21.074922 20.538734 20.556656 20.552734 19.722656L20.566406 18.900391C20.572406 18.551391 20.726656 18.228422 20.972656 17.982422L20.980469 17.974609C21.226469 17.727609 21.550438 17.572406 21.898438 17.566406L22.722656 17.552734C23.556656 17.538734 24.074922 16.641109 23.669922 15.912109L23.273438 15.199219C23.103437 14.892219 23.074969 14.533313 23.167969 14.195312C23.169969 14.189312 23.171828 14.182781 23.173828 14.175781C23.264828 13.840781 23.465672 13.546188 23.763672 13.367188L24.462891 12.947266C25.179891 12.517266 25.179844 11.481734 24.464844 11.052734L23.765625 10.632812C23.467625 10.453812 23.266781 10.159219 23.175781 9.8242188C23.173781 9.8182188 23.171922 9.8136406 23.169922 9.8066406C23.076922 9.4686406 23.105391 9.1087344 23.275391 8.8027344L23.671875 8.0898438C24.076875 7.3608437 23.558609 6.4612656 22.724609 6.4472656L21.900391 6.4335938C21.551391 6.4275937 21.228422 6.2733437 20.982422 6.0273438L20.974609 6.0195312C20.727609 5.7735312 20.574359 5.4495625 20.568359 5.1015625L20.554688 4.2773438C20.540688 3.4433438 19.641109 2.9250781 18.912109 3.3300781L18.199219 3.7265625C17.892219 3.8965625 17.533312 3.9250313 17.195312 3.8320312C17.189312 3.8300313 17.184734 3.8281719 17.177734 3.8261719C16.842734 3.7351719 16.548141 3.5343281 16.369141 3.2363281L15.949219 2.5371094C15.734719 2.1796094 15.368453 2.0019531 15.001953 2.0019531 z M 7.7480469 21.015625L5.5410156 26.302734L9.4179688 25.962891L12 29L14.140625 23.873047C13.395625 23.660047 12.750891 23.182187 12.337891 22.492188L12.234375 22.320312L12.060547 22.417969C11.598547 22.673969 11.078688 22.808594 10.554688 22.808594C9.3206875 22.808594 8.2470469 22.070625 7.7480469 21.015625 z M 22.251953 21.015625C21.752953 22.070625 20.679312 22.810547 19.445312 22.810547C18.922313 22.810547 18.401453 22.674969 17.939453 22.417969L17.765625 22.320312L17.662109 22.492188C17.248109 23.181188 16.602422 23.661047 15.857422 23.873047L18 29L20.582031 25.964844L24.458984 26.302734L22.251953 21.015625 z" fill="#0746A7" />
</svg>