<svg xmlns="http://www.w3.org/2000/svg" xmlns:xlink="http://www.w3.org/1999/xlink" viewBox="0 0 24 24" fill="#5090DD">
  <path d="M16 2.0078125C14.462555 2.0078125 12.925349 2.5908738 11.757812 3.7578125L3.7578125 11.757812C1.422423 14.092007 1.4227166 17.907091 3.7578125 20.242188L3.7578125 20.244141C4.925619 21.410705 6.4658333 22 8 22C9.5341667 22 11.075162 21.409212 12.242188 20.242188L20.242188 12.244141L20.242188 12.242188C22.576376 9.9078856 22.576884 6.0925086 20.242188 3.7578125C19.074651 2.5908738 17.537445 2.0078125 16 2.0078125 z M 16 3.9941406C17.021555 3.9941406 18.042661 4.3868137 18.828125 5.171875C20.399029 6.7427791 20.398735 9.2583187 18.828125 10.828125L15.078125 14.578125L9.421875 8.921875L13.171875 5.171875C13.957339 4.3868137 14.978445 3.9941406 16 3.9941406 z" fill="#5090DD" />
</svg>