<svg xmlns="http://www.w3.org/2000/svg" xmlns:xlink="http://www.w3.org/1999/xlink" viewBox="0 0 24 24" fill="#0746A7">
  <path d="M12 3 A 2 2 0 0 0 10 5 A 2 2 0 0 0 12 7 A 2 2 0 0 0 14 5 A 2 2 0 0 0 12 3 z M 11 9L11 11.574219L8.9628906 13.537109L10.349609 14.976562L12 13.388672L13.650391 14.976562L15.037109 13.537109L13 11.574219L13 9L11 9 z M 6 10 A 2 2 0 0 0 4 12 A 2 2 0 0 0 6 14 A 2 2 0 0 0 8 12 A 2 2 0 0 0 6 10 z M 18 10 A 2 2 0 0 0 16 12 A 2 2 0 0 0 18 14 A 2 2 0 0 0 20 12 A 2 2 0 0 0 18 10 z M 6 16C4.665 16 2 16.720781 2 18.050781L2 20L10 20L10 18.050781C10 16.720781 7.335 16 6 16 z M 18 16C16.665 16 14 16.720781 14 18.050781L14 20L22 20L22 18.050781C22 16.720781 19.335 16 18 16 z" fill="#0746A7" />
</svg>