<svg xmlns="http://www.w3.org/2000/svg" xmlns:xlink="http://www.w3.org/1999/xlink" viewBox="0 0 30 30" fill="#5090DD">
  <path d="M5.984375 1.9863281 A 1.0001 1.0001 0 0 0 5 3C5 5.9777778 6.2720239 8.4200122 8.0625 10.449219C9.5642751 12.15123 11.428647 13.603333 13.318359 15.001953C9.0621435 18.157343 5 21.5591 5 27C5 27.553 5.448 28 6 28C6.552 28 7 27.553 7 27C7 22.326962 10.81024 19.326174 15 16.244141C16.666746 17.471704 18.257352 18.700036 19.578125 20L12.404297 20C12.404297 20 11.236453 20.919 10.689453 22L21.326172 22C21.778818 22.637409 22.148758 23.300613 22.425781 24L9.5839844 24C9.1529844 24.924 9.0820312 26 9.0820312 26L22.9375 26C22.975928 26.324544 23 26.655808 23 27 A 1.0001 1.0001 0 1 0 25 27C25 24.022222 23.727976 21.579988 21.9375 19.550781C20.147024 17.521575 17.841797 15.843359 15.591797 14.193359C13.341797 12.543359 11.147024 10.920794 9.5625 9.125C7.9779761 7.3292063 7 5.4222222 7 3 A 1.0001 1.0001 0 0 0 5.984375 1.9863281 z M 24 2C23.448 2 23 2.447 23 3C23 3.3430025 22.971324 3.6743164 22.931641 4L9.0820312 4C9.0820312 4 9.1529844 5.076 9.5839844 6L22.421875 6C22.142938 6.7040621 21.76209 7.3650437 21.314453 8L10.689453 8C11.236453 9.081 12.404297 10 12.404297 10L19.589844 10C18.711656 10.865367 17.728699 11.693805 16.671875 12.505859C16.706875 12.530859 16.738437 12.555078 16.773438 12.580078C17.290437 12.959078 17.816797 13.347234 18.341797 13.740234C21.935797 10.916234 25 7.726 25 3C25 2.447 24.552 2 24 2 z" fill="#5090DD" />
</svg>