<svg xmlns="http://www.w3.org/2000/svg" xmlns:xlink="http://www.w3.org/1999/xlink" viewBox="0 0 24 24" fill="#0746A7">
  <path d="M5 4C3.895 4 3 4.895 3 6L3 11.277344C2.4043659 11.623613 2 12.261054 2 13L2 22L4 22L4 20L20 20L20 22L22 22L22 13C22 12.261054 21.595634 11.623613 21 11.277344L21 6C21 4.895 20.105 4 19 4L5 4 z M 5 6L19 6L19 11L18 11L18 9C18 8.448 17.552 8 17 8L14 8C13.448 8 13 8.448 13 9L13 11L11 11L11 9C11 8.448 10.552 8 10 8L7 8C6.448 8 6 8.448 6 9L6 11L5 11L5 6 z M 4 13L20 13L20 18L4 18L4 13 z" fill="#0746A7" />
</svg>