<svg xmlns="http://www.w3.org/2000/svg" xmlns:xlink="http://www.w3.org/1999/xlink" viewBox="0 0 24 24" fill="#FFFFFF">
  <path d="M7 1C5.895 1 5 1.895 5 3L5 21C5 22.105 5.895 23 7 23L17 23C18.105 23 19 22.105 19 21L19 19L17 17L17 19L7 19L7 5L17 5L17 7L19 5L19 3C19 1.895 18.105 1 17 1L7 1 z M 20.65625 6.34375L19.242188 7.7578125C21.581187 10.097812 21.581187 13.902187 19.242188 16.242188L20.65625 17.65625C23.77525 14.53725 23.77525 9.46275 20.65625 6.34375 z M 17.828125 9.171875L16.414062 10.585938C16.792063 10.963938 17 11.466 17 12C17 12.534 16.792063 13.036062 16.414062 13.414062L17.828125 14.828125C18.584125 14.073125 19 13.068 19 12C19 10.932 18.584125 9.926875 17.828125 9.171875 z" fill="#FFFFFF" />
</svg>