<svg xmlns="http://www.w3.org/2000/svg" xmlns:xlink="http://www.w3.org/1999/xlink" viewBox="0 0 50 50" fill="#FFFFFF">
  <path d="M37.5 3 A 4.5 4.5 0 0 0 33 7.5 A 4.5 4.5 0 0 0 37.5 12 A 4.5 4.5 0 0 0 42 7.5 A 4.5 4.5 0 0 0 37.5 3 z M 8 4 A 2 2 0 0 0 6.2695312 5L3 5 A 1.0001 1.0001 0 0 0 2 6L2 14C2 20.278497 6.8526955 25.438848 13.001953 25.949219 A 1.0001 1.0001 0 0 0 13 26C13 28.4525 12.95798 31.862544 14.470703 34.796875C15.983424 37.731206 19.189377 40 24.875 40C27.821558 40 30.096714 39.064849 31.806641 37.720703L31.810547 37.779297C33.837956 36.191434 35.033181 33.996043 35.716797 31.972656C35.77375 31.806976 35.827388 31.644325 35.876953 31.482422C35.936188 31.285774 35.993414 31.093432 36.042969 30.902344C36.136183 30.548553 36.218 30.205371 36.279297 29.882812C36.289788 29.826991 36.295026 29.779497 36.304688 29.724609C36.355017 29.441786 36.388916 29.188827 36.417969 28.939453C36.46764 28.511359 36.499923 28.113276 36.5 27.791016 A 1.0001 1.0001 0 0 0 36.5 27.789062L36.5 25.849609C35.06 25.419609 34 24.08 34 22.5C34 20.57 35.57 19 37.5 19C39.43 19 41 20.57 41 22.5C41 24.08 39.94 25.419609 38.5 25.849609L38.5 27.789062C38.5 29.829062 37.829922 33.239922 35.919922 36.169922C35.049922 37.519922 33.769688 39.000859 31.929688 40.130859L32.230469 46L42.769531 46L43.5 31.810547L47 30.369141L47 22.800781C47 17.390781 42.74 13 37.5 13C32.26 13 28 17.390781 28 22.800781L28 30.369141L31.5 31.810547L31.673828 35.136719C30.245626 36.776567 28.155984 38 24.875 38C19.685623 38 17.454076 36.220279 16.248047 33.880859C15.042018 31.54144 15 28.4525 15 26 A 1.0001 1.0001 0 0 0 14.998047 25.949219C21.147304 25.438848 26 20.278497 26 14L26 6 A 1.0001 1.0001 0 0 0 25 5L21.728516 5 A 2 2 0 0 0 20 4 A 2 2 0 0 0 18 6 A 2 2 0 0 0 20 8 A 2 2 0 0 0 21.730469 7L24 7L24 14C24 19.534534 19.534534 24 14 24C8.4654664 24 4 19.534534 4 14L4 7L6.2714844 7 A 2 2 0 0 0 8 8 A 2 2 0 0 0 10 6 A 2 2 0 0 0 8 4 z M 37.5 21C36.672 21 36 21.672 36 22.5C36 23.328 36.672 24 37.5 24C38.328 24 39 23.328 39 22.5C39 21.672 38.328 21 37.5 21 z" fill="#5090DD" />
</svg>